<svg xmlns="http://www.w3.org/2000/svg" width="120" height="120" fill="#0e1f55"  opacity=".25" xmlns:v="https://vecta.io/nano"><path d="M0 0h8v8H0zm32 0h8v8h-8zm32 0h8v8h-8zm32 0h8v8h-8zM16 0h8v8h-8zm32 0h8v8h-8zm32 0h8v8h-8zm32 0h8v8h-8zM0 64h8v8H0zm32 0h8v8h-8zm32 0h8v8h-8zm32 0h8v8h-8zm-80 0h8v8h-8zm32 0h8v8h-8zm32 0h8v8h-8zm32 0h8v8h-8zM0 32h8v8H0zm32 0h8v8h-8zm32 0h8v8h-8zm32 0h8v8h-8zm-80 0h8v8h-8zm32 0h8v8h-8zm32 0h8v8h-8zm32 0h8v8h-8zM0 96h8v8H0zm32 0h8v8h-8zm32 0h8v8h-8zm32 0h8v8h-8zm-80 0h8v8h-8zm32 0h8v8h-8zm32 0h8v8h-8zm32 0h8v8h-8zM0 16h8v8H0zm32 0h8v8h-8zm32 0h8v8h-8zm32 0h8v8h-8zm-80 0h8v8h-8zm32 0h8v8h-8zm32 0h8v8h-8zm32 0h8v8h-8zM0 80h8v8H0zm32 0h8v8h-8zm32 0h8v8h-8zm32 0h8v8h-8zm-80 0h8v8h-8zm32 0h8v8h-8zm32 0h8v8h-8zm32 0h8v8h-8zM0 48h8v8H0zm32 0h8v8h-8zm32 0h8v8h-8zm32 0h8v8h-8zm-80 0h8v8h-8zm32 0h8v8h-8zm32 0h8v8h-8zm32 0h8v8h-8zM0 112h8v8H0zm32 0h8v8h-8zm32 0h8v8h-8zm32 0h8v8h-8zm-80 0h8v8h-8zm32 0h8v8h-8zm32 0h8v8h-8zm32 0h8v8h-8z"/></svg>
