<svg width="100%" height="100%" viewBox="0 0 18 18" fill="none" xmlns="http://www.w3.org/2000/svg">
<path fill-rule="evenodd" clip-rule="evenodd" d="M15.0361 4.76378C15.2048 4.93256 15.2996 5.16143 15.2996 5.40008C15.2996 5.63873 15.2048 5.86761 15.0361 6.03638L7.83612 13.2364C7.66734 13.4051 7.43847 13.4999 7.19982 13.4999C6.96117 13.4999 6.73229 13.4051 6.56352 13.2364L2.96352 9.63638C2.79957 9.46664 2.70886 9.2393 2.71091 9.00332C2.71296 8.76734 2.80761 8.54161 2.97448 8.37475C3.14135 8.20788 3.36708 8.11323 3.60306 8.11118C3.83903 8.10913 4.06637 8.19984 4.23612 8.36378L7.19982 11.3275L13.7635 4.76378C13.9323 4.59506 14.1612 4.50027 14.3998 4.50027C14.6385 4.50027 14.8673 4.59506 15.0361 4.76378Z" fill="#F7F8FF"/>
</svg>
