<svg width="100%" height="100%" viewBox="0 0 21 22" fill="none" xmlns="http://www.w3.org/2000/svg">
<g clip-path="url(#clip0)">
<path d="M10.4245 0.434326C4.67644 0.434326 0 5.11058 0 10.8583C0 16.6061 4.67644 21.2823 10.4245 21.2823C16.1726 21.2823 20.8491 16.6061 20.8491 10.8583C20.8491 5.11058 16.1726 0.434326 10.4245 0.434326ZM10.4245 19.387C5.72155 19.387 1.89537 15.5611 1.89537 10.8583C1.89537 6.15562 5.72155 2.32969 10.4245 2.32969C15.1275 2.32969 18.9537 6.15562 18.9537 10.8583C18.9537 15.5611 15.1275 19.387 10.4245 19.387Z" fill="#566598"/>
<path d="M10.4245 8.64777C9.90115 8.64777 9.47684 9.07208 9.47684 9.59545V15.9123C9.47684 16.4356 9.90115 16.86 10.4245 16.86C10.9479 16.86 11.3722 16.4356 11.3722 15.9123V9.59545C11.3722 9.07214 10.9479 8.64777 10.4245 8.64777Z" fill="#566598"/>
<path d="M10.4245 4.85722C10.175 4.85722 9.93103 4.95831 9.75419 5.13458C9.57792 5.31085 9.47684 5.55535 9.47684 5.80491C9.47684 6.05446 9.57792 6.29834 9.75419 6.47524C9.93046 6.65151 10.175 6.75259 10.4245 6.75259C10.6741 6.75259 10.918 6.65151 11.0948 6.47524C11.2711 6.29834 11.3722 6.05446 11.3722 5.80491C11.3722 5.55535 11.2711 5.31085 11.0948 5.13458C10.918 4.95825 10.6741 4.85722 10.4245 4.85722Z" fill="#566598"/>
</g>
<defs>
<clipPath id="clip0">
<rect width="20.8491" height="20.8491" fill="white" transform="translate(0 0.433975)"/>
</clipPath>
</defs>
</svg>
