<svg width="100%" height="100%" viewBox="0 0 21 22" fill="none" xmlns="http://www.w3.org/2000/svg">
<g clip-path="url(#clip0)">
<path d="M10.3899 19.63H2.59746C2.11952 19.63 1.73165 19.2421 1.73165 18.7642V3.17932C1.73165 2.70138 2.11956 2.31351 2.59746 2.31351H10.3899C10.8687 2.31351 11.2557 1.9265 11.2557 1.4477C11.2557 0.96891 10.8687 0.581818 10.3899 0.581818H2.59746C1.16539 0.581818 0 1.74725 0 3.17932V18.7641C0 20.1962 1.16539 21.3616 2.59746 21.3616H10.3899C10.8687 21.3616 11.2557 20.9746 11.2557 20.4958C11.2557 20.017 10.8687 19.63 10.3899 19.63Z" fill="#566598"/>
<path d="M20.591 10.3552L15.3268 5.16028C14.9874 4.82433 14.4385 4.82869 14.1025 5.16895C13.7666 5.50921 13.7701 6.05727 14.1112 6.39322L17.8732 10.1059H7.79241C7.31362 10.1059 6.92661 10.4929 6.92661 10.9717C6.92661 11.4505 7.31362 11.8375 7.79241 11.8375H17.8732L14.1112 15.5502C13.7701 15.8861 13.7675 16.4342 14.1025 16.7744C14.2722 16.9459 14.4956 17.0324 14.719 17.0324C14.939 17.0324 15.1588 16.9493 15.3268 16.7831L20.591 11.5881C20.7556 11.4253 20.8491 11.2037 20.8491 10.9716C20.8491 10.7397 20.7564 10.5189 20.591 10.3552Z" fill="#566598"/>
</g>
<defs>
<clipPath id="clip0">
<rect width="20.8491" height="20.8491" fill="white" transform="translate(0 0.54718)"/>
</clipPath>
</defs>
</svg>
