<svg width="100%" height="100%" viewBox="0 0 124 124" fill="none" xmlns="http://www.w3.org/2000/svg">
<path d="M112 6H12C5.4 6 0 11.4 0 18C0 24.6 5.4 30 12 30H112C118.6 30 124 24.6 124 18C124 11.4 118.6 6 112 6Z" fill="#0E1F55"/>
<path d="M112 50H12C5.4 50 0 55.4 0 62C0 68.6 5.4 74 12 74H112C118.6 74 124 68.6 124 62C124 55.4 118.6 50 112 50Z" fill="#0E1F55"/>
<path d="M112 94H12C5.4 94 0 99.4 0 106C0 112.6 5.4 118 12 118H112C118.6 118 124 112.6 124 106C124 99.4 118.6 94 112 94Z" fill="#0E1F55"/>
</svg>
