<svg xmlns="http://www.w3.org/2000/svg" xmlns:xlink="http://www.w3.org/1999/xlink" width="577" height="426" fill="none" xmlns:v="https://vecta.io/nano"><g clip-path="url(#A)"><path d="M213.867 262.477L94.423 287.673a13.31 13.31 0 0 1-10.004-1.879 13.33 13.33 0 0 1-5.756-8.402l-20.496-97.314c-.724-3.454-.048-7.055 1.878-10.012a13.32 13.32 0 0 1 8.395-5.76l119.444-25.196a13.31 13.31 0 0 1 10.004 1.879c2.955 1.928 5.025 4.949 5.756 8.402l20.497 97.314a13.34 13.34 0 0 1-1.878 10.012 13.32 13.32 0 0 1-8.395 5.76zM68.762 165.839a11.75 11.75 0 0 0-7.407 5.082c-1.699 2.609-2.295 5.786-1.657 8.834l20.496 97.314c.645 3.047 2.472 5.713 5.079 7.413a11.74 11.74 0 0 0 8.827 1.658l119.444-25.196a11.75 11.75 0 0 0 7.408-5.082c1.699-2.609 2.295-5.786 1.656-8.834l-20.496-97.314c-.645-3.047-2.472-5.713-5.079-7.413a11.74 11.74 0 0 0-8.827-1.658L68.762 165.839z" fill="#3f3d56"/><g fill="#ccc"><path d="M180.462 171.197l-60.282 12.717a2.14 2.14 0 0 1-2.527-1.459c-.072-.271-.089-.553-.048-.83a2.04 2.04 0 0 1 .851-1.387c.229-.161.488-.274.761-.332l61.363-12.944c2.396 1.351 1.639 3.865-.119 4.236l.001-.001zm2.229 10.582l-60.282 12.716a2.13 2.13 0 0 1-1.551-.23 2.14 2.14 0 0 1-.976-1.228c-.072-.271-.089-.553-.048-.83a2.04 2.04 0 0 1 .851-1.387 2.06 2.06 0 0 1 .761-.332l61.363-12.944c2.396 1.351 1.639 3.865-.119 4.236l.001-.001zm-72.045 21.49l-18.397 3.881c-.601.126-1.227.009-1.741-.327a2.32 2.32 0 0 1-1.002-1.462l-4.576-21.727a2.32 2.32 0 0 1 .327-1.743c.335-.515.861-.875 1.461-1.002l18.397-3.881c.601-.126 1.227-.009 1.741.327a2.32 2.32 0 0 1 1.002 1.462l4.577 21.727c.126.601.008 1.228-.327 1.743s-.861.875-1.462 1.002h0zm76.433.214L95.078 222.89c-.528.122-1.082.04-1.551-.231a2.14 2.14 0 0 1-.976-1.228 2.06 2.06 0 0 1-.048-.829 2.05 2.05 0 0 1 .283-.782 2.06 2.06 0 0 1 .568-.605 2.04 2.04 0 0 1 .761-.332l93.083-19.636c2.396 1.352 1.639 3.865-.119 4.236zm2.229 10.585l-92.001 19.407a2.14 2.14 0 0 1-2.527-1.459 2.06 2.06 0 0 1-.048-.829 2.05 2.05 0 0 1 .283-.782 2.06 2.06 0 0 1 .568-.605 2.04 2.04 0 0 1 .761-.332l93.083-19.636c2.396 1.352 1.639 3.865-.119 4.236zm2.228 10.578l-92.001 19.407a2.13 2.13 0 0 1-1.551-.231 2.14 2.14 0 0 1-.976-1.228 2.06 2.06 0 0 1-.049-.829 2.07 2.07 0 0 1 .283-.782 2.06 2.06 0 0 1 .568-.605 2.05 2.05 0 0 1 .761-.332l93.083-19.635c2.396 1.351 1.639 3.864-.119 4.235h0zm2.229 10.584l-92.001 19.407a2.13 2.13 0 0 1-2.526-1.459 2.06 2.06 0 0 1-.049-.829 2.04 2.04 0 0 1 .283-.781 2.08 2.08 0 0 1 .568-.606c.228-.161.488-.274.761-.332l93.084-19.635c2.395 1.351 1.638 3.864-.12 4.235zm2.229 10.579l-92.001 19.407a2.13 2.13 0 0 1-1.551-.231c-.469-.27-.818-.709-.976-1.228a2.05 2.05 0 0 1-.049-.829c.041-.277.137-.543.283-.781s.34-.445.568-.606a2.07 2.07 0 0 1 .762-.332l93.083-19.635c2.396 1.351 1.638 3.864-.119 4.235z"/></g><g fill="#ffb8b8"><path d="M210.669 197.362a8.26 8.26 0 0 0-.535 1.182l-37.664 9.354-6.552-6.784-11.522 8.558 10.433 13.137a6.25 6.25 0 0 0 3.318 2.163 6.26 6.26 0 0 0 3.951-.261l40.869-16.713a8.21 8.21 0 0 0 9.333.28 8.22 8.22 0 0 0 3.128-3.763c.637-1.542.789-3.243.436-4.874a8.22 8.22 0 0 0-2.409-4.259c-1.217-1.142-2.752-1.886-4.402-2.134a8.21 8.21 0 0 0-4.833.749c-1.498.735-2.736 1.908-3.551 3.365h0zM82.108 280.598c1.174-.363 2.255-.979 3.165-1.805a8.42 8.42 0 0 0 2.754-6.563c-.048-1.229-.365-2.432-.928-3.525l25.92-72.097-18.001-3.192L75.2 265.288a8.46 8.46 0 0 0-3.341 10.726c.852 1.887 2.365 3.396 4.254 4.241s4.022.967 5.995.343z"/></g><path d="M109.727 209.406l-17.772-6.826c-.506-.194-.964-.495-1.343-.883s-.67-.851-.853-1.361-.255-1.054-.209-1.594.207-1.064.473-1.536l9.323-16.544c1.009-2.582 2.999-4.659 5.535-5.776a10.46 10.46 0 0 1 7.994-.18c2.584 1.001 4.666 2.986 5.789 5.521a10.48 10.48 0 0 1 .206 8l-4.113 18.479c-.118.529-.348 1.026-.676 1.458s-.743.788-1.221 1.044a3.75 3.75 0 0 1-1.544.441c-.541.034-1.082-.049-1.588-.243h0z" fill="#0c56d0"/><path d="M149.841 415.957h9.593l4.564-37.031-14.158.001.001 37.03z" fill="#ffb8b8"/><path d="M147.394 412.823l18.892-.001h.001c1.581 0 3.147.312 4.608.917s2.788 1.493 3.906 2.612 2.004 2.447 2.609 3.909a12.04 12.04 0 0 1 .917 4.611v.391l-30.932.001-.001-12.44z" fill="#2f2e41"/><path d="M95.85 415.957h9.592l4.564-37.031-14.158.001.002 37.03z" fill="#ffb8b8"/><g fill="#2f2e41"><path d="M93.402 412.823l18.893-.001h0c1.581 0 3.147.312 4.608.917a12.04 12.04 0 0 1 3.906 2.612 12.05 12.05 0 0 1 2.61 3.909c.605 1.462.916 3.028.916 4.611v.391l-30.932.001-.001-12.44zm12.504-11.77h-12.14c-.476 0-.948-.097-1.386-.285s-.833-.462-1.162-.807a3.53 3.53 0 0 1-.751-1.201 3.51 3.51 0 0 1-.218-1.399l5.767-123.988.363-.01 58.623-1.529 11.472 124.059a3.54 3.54 0 0 1-.143 1.38c-.139.446-.365.86-.665 1.218s-.668.653-1.083.867-.868.344-1.334.381l-13.635 1.091a3.52 3.52 0 0 1-2.396-.696c-.687-.516-1.162-1.266-1.335-2.109l-17.442-88.314c-.047-.268-.189-.51-.4-.683a1.14 1.14 0 0 0-.749-.256h-.005a1.14 1.14 0 0 0-.75.261c-.21.174-.351.418-.397.687l-16.779 88.489a3.53 3.53 0 0 1-3.455 2.844z"/></g><path d="M128.144 162.792a19.23 19.23 0 1 0 0-38.467 19.23 19.23 0 1 0 0 38.467z" fill="#ffb8b8"/><g fill="#0c56d0"><path d="M121.7 287.903c-9.16 0-18.569-2.409-26.368-9.534-.415-.376-.736-.845-.935-1.369a3.57 3.57 0 0 1-.215-1.645c.835-7.507 4.884-46.266 2.604-72.157a31.36 31.36 0 0 1 1.998-14.235 31.35 31.35 0 0 1 8.139-11.845 30.98 30.98 0 0 1 12.381-6.984c4.612-1.336 9.471-1.582 14.194-.717h.001l.718.134c15.386 2.98 26.077 17.231 24.867 33.149-1.765 23.226-3.347 54.643-.863 72.41.103.727-.024 1.468-.362 2.119a3.52 3.52 0 0 1-1.527 1.512c-5.654 2.859-19.818 9.162-34.632 9.162z"/><path d="M146.778 210.79a3.75 3.75 0 0 1-1.116-1.155 3.77 3.77 0 0 1-.534-1.516l-2.342-18.787c-.743-2.671-.397-5.529.961-7.946a10.47 10.47 0 0 1 6.288-4.947c2.667-.752 5.523-.414 7.942.939a10.48 10.48 0 0 1 4.962 6.279l7.712 17.354c.22.495.331 1.032.325 1.574a3.78 3.78 0 0 1-.36 1.567c-.231.49-.564.925-.978 1.274s-.899.606-1.42.751l-18.34 5.108a3.78 3.78 0 0 1-1.604.091c-.535-.085-1.045-.285-1.496-.586z"/></g><path d="M121.435 162.52a13.74 13.74 0 0 1-5.318-.963l-2.261-.81c-6.562-2.537-10.885-9.532-11.04-16.571s3.488-13.87 8.896-18.373 12.414-6.814 19.429-7.348c7.557-.576 16.065 1.342 20.287 7.639 1.124 1.677 1.91 3.711 1.244 5.735-.199.61-.555 1.158-1.033 1.588-1.885 1.679-3.765.416-5.688.305-2.642-.154-5.015 1.987-5.868 4.494s-.477 5.267.212 7.825a19.57 19.57 0 0 1 .984 4.758 4.78 4.78 0 0 1-.444 2.363c-.346.737-.875 1.373-1.536 1.848-1.651.999-3.819.421-5.471-.576s-3.08-2.383-4.864-3.117-4.182-.571-5.221 1.056a5.79 5.79 0 0 0-.66 1.907c-.931 4.245-.717 3.995-1.648 8.24h0z" fill="#2f2e41"/><path d="M387.637 136.257H265.569a13.31 13.31 0 0 1-9.402-3.903c-2.494-2.496-3.896-5.88-3.9-9.409V23.493a13.33 13.33 0 0 1 3.9-9.409c2.494-2.496 5.875-3.9 9.402-3.904h122.068c3.527.004 6.908 1.408 9.402 3.904s3.897 5.88 3.901 9.409v99.452c-.004 3.529-1.407 6.913-3.901 9.409a13.31 13.31 0 0 1-9.402 3.903zM265.569 11.746c-3.112.004-6.095 1.242-8.296 3.444s-3.438 5.188-3.441 8.302v99.452c.003 3.114 1.241 6.1 3.441 8.302s5.184 3.441 8.296 3.444h122.068c3.112-.003 6.096-1.242 8.296-3.444s3.438-5.188 3.442-8.302V23.493c-.004-3.114-1.241-6.1-3.442-8.302s-5.184-3.441-8.296-3.444H265.569z" fill="#3f3d56"/><g fill="#ccc"><path d="M373.763 40.046h-61.607a2.14 2.14 0 0 1-1.47-.546c-.403-.362-.654-.863-.701-1.403-.016-.279.027-.559.123-.822a2.06 2.06 0 0 1 .438-.706c.192-.203.424-.365.681-.475s.533-.168.813-.168h62.711c2.066 1.817.807 4.12-.989 4.12h.001zm0 10.814h-61.607a2.14 2.14 0 0 1-1.47-.546c-.403-.362-.654-.863-.701-1.403-.016-.279.027-.559.123-.822a2.04 2.04 0 0 1 .438-.706c.193-.203.424-.365.681-.475s.533-.168.813-.168h62.711c2.066 1.817.807 4.12-.989 4.12h.001z"/></g><path d="M298.839 57.017h-18.802c-.614-.001-1.203-.245-1.637-.679s-.678-1.023-.679-1.638V32.496c.001-.614.245-1.203.679-1.638a2.32 2.32 0 0 1 1.637-.679h18.802a2.32 2.32 0 0 1 2.315 2.317V54.7c-.001.614-.245 1.203-.679 1.638s-1.023.679-1.636.679z" fill="#3f3d56"/><g fill="#ccc"><use xlink:href="#B"/><path d="M373.584 83.82h-94.023c-.541.011-1.067-.184-1.47-.546a2.14 2.14 0 0 1-.702-1.403c-.015-.279.027-.559.124-.822s.245-.503.437-.706.424-.365.681-.475a2.06 2.06 0 0 1 .814-.168h95.128c2.066 1.817.807 4.12-.989 4.12h0zm0 10.811h-94.023c-.541.011-1.067-.184-1.47-.546a2.14 2.14 0 0 1-.702-1.403c-.015-.279.027-.559.124-.822s.245-.503.437-.706.424-.365.681-.475a2.06 2.06 0 0 1 .814-.168h95.128c2.066 1.817.807 4.12-.989 4.12h0zm0 10.817h-94.023a2.14 2.14 0 0 1-1.47-.546c-.403-.362-.654-.864-.702-1.404a2.05 2.05 0 0 1 .561-1.527c.193-.203.424-.365.681-.476a2.07 2.07 0 0 1 .814-.167h95.128c2.066 1.817.807 4.12-.989 4.12h0zm0 10.811h-94.023c-.541.011-1.067-.184-1.47-.546a2.14 2.14 0 0 1-.702-1.403c-.015-.28.027-.559.124-.822a2.05 2.05 0 0 1 .437-.706c.193-.203.424-.365.681-.475a2.07 2.07 0 0 1 .814-.168h95.128c2.066 1.817.807 4.12-.989 4.12z"/></g><path d="M361.033 0c1.037.001 2.032.414 2.765 1.148a3.92 3.92 0 0 1 1.147 2.767v12.529a3.92 3.92 0 0 1-1.147 2.767c-.733.734-1.728 1.147-2.765 1.148h-68.859c-1.038-.001-2.032-.414-2.766-1.148s-1.146-1.729-1.147-2.767V3.915a3.92 3.92 0 0 1 1.147-2.767c.734-.734 1.728-1.147 2.766-1.148" fill="#0c56d0"/><g fill="#3f3d56"><path d="M563.698 259.202H441.629c-3.527-.004-6.908-1.408-9.402-3.903a13.33 13.33 0 0 1-3.9-9.409v-99.452c.004-3.53 1.407-6.914 3.9-9.409a13.31 13.31 0 0 1 9.402-3.904h122.069a13.31 13.31 0 0 1 9.401 3.904 13.33 13.33 0 0 1 3.901 9.409v99.452c-.004 3.529-1.407 6.913-3.901 9.409a13.31 13.31 0 0 1-9.401 3.903zM441.629 134.691c-3.112.004-6.095 1.242-8.295 3.444a11.76 11.76 0 0 0-3.442 8.303v99.452a11.76 11.76 0 0 0 3.442 8.302 11.74 11.74 0 0 0 8.295 3.444h122.069a11.74 11.74 0 0 0 8.295-3.444 11.76 11.76 0 0 0 3.442-8.302v-99.452a11.76 11.76 0 0 0-3.442-8.303c-2.2-2.202-5.183-3.44-8.295-3.444H441.629zm108.194 28.299h-61.606c-.542.011-1.067-.184-1.47-.546a2.14 2.14 0 0 1-.702-1.403c-.015-.279.027-.559.123-.821a2.07 2.07 0 0 1 .438-.706c.192-.203.424-.365.681-.476a2.07 2.07 0 0 1 .813-.167h62.712c2.066 1.816.807 4.119-.99 4.119h.001zm0 10.815h-61.606c-.542.011-1.067-.184-1.47-.546a2.14 2.14 0 0 1-.702-1.403 2.07 2.07 0 0 1 .561-1.528c.192-.203.424-.365.681-.475a2.05 2.05 0 0 1 .813-.168h62.712c2.066 1.817.807 4.12-.99 4.12h.001z"/></g><path d="M474.899 179.962h-18.802c-.614 0-1.202-.245-1.636-.679s-.679-1.023-.679-1.638v-22.204c0-.615.244-1.204.679-1.638a2.31 2.31 0 0 1 1.636-.679h18.802c.614 0 1.202.245 1.636.679s.678 1.023.679 1.638v22.204c0 .615-.245 1.204-.679 1.638s-1.022.679-1.636.679z" fill="#ccc"/><path d="M549.235 240.26h-18.801a2.32 2.32 0 0 1-1.637-.679c-.434-.435-.678-1.024-.679-1.638v-12.807a2.32 2.32 0 0 1 .679-1.638c.434-.435 1.023-.679 1.637-.68h18.801a2.32 2.32 0 0 1 2.316 2.318v12.807c-.001.614-.245 1.203-.679 1.638a2.32 2.32 0 0 1-1.637.679z" fill="#3f3d56"/><g fill="#ccc"><path d="M549.644 195.947h-94.023a2.14 2.14 0 0 1-1.47-.545c-.403-.362-.654-.864-.702-1.404a2.05 2.05 0 0 1 .124-.821 2.04 2.04 0 0 1 .438-.706c.192-.203.424-.365.681-.476a2.06 2.06 0 0 1 .813-.167h95.128c2.066 1.816.807 4.12-.989 4.12v-.001zm0 10.818h-94.023c-.541.011-1.067-.184-1.47-.546a2.14 2.14 0 0 1-.702-1.403c-.015-.28.027-.559.124-.822a2.05 2.05 0 0 1 .438-.706c.192-.203.424-.365.681-.475s.533-.168.813-.168h95.128c2.066 1.817.807 4.12-.989 4.12h0zm0 10.811h-94.023a2.14 2.14 0 0 1-1.47-.546c-.403-.362-.654-.864-.702-1.404a2.05 2.05 0 0 1 .124-.821 2.04 2.04 0 0 1 .438-.706c.192-.203.424-.365.681-.476a2.06 2.06 0 0 1 .813-.167h95.128c2.066 1.817.807 4.12-.989 4.12h0zm-49.297 10.816h-44.726c-.541.011-1.067-.184-1.47-.546a2.14 2.14 0 0 1-.702-1.403 2.05 2.05 0 0 1 .124-.821 2.04 2.04 0 0 1 .438-.706c.192-.203.424-.365.681-.476a2.06 2.06 0 0 1 .813-.167h45.831c2.066 1.816.807 4.119-.989 4.119h0zm0 10.812h-44.726c-.541.011-1.067-.184-1.47-.546s-.654-.864-.702-1.403c-.015-.28.027-.559.124-.822a2.04 2.04 0 0 1 .438-.706c.192-.203.424-.365.681-.476a2.06 2.06 0 0 1 .813-.167h45.831c2.066 1.817.807 4.12-.989 4.12z"/></g><path d="M537.093 143.305h-68.859c-1.037-.001-2.032-.414-2.765-1.148s-1.146-1.729-1.147-2.767v-12.53c.001-1.038.413-2.033 1.147-2.767s1.728-1.147 2.765-1.148h68.859c1.037.001 2.032.414 2.765 1.148s1.146 1.729 1.147 2.767v12.53c-.001 1.038-.413 2.033-1.147 2.767s-1.728 1.147-2.765 1.148z" fill="#0c56d0"/><path d="M298.911 426H.782a.78.78 0 0 1-.553-.229c-.147-.147-.229-.346-.229-.554s.082-.407.229-.554a.78.78 0 0 1 .553-.229h298.129a.78.78 0 0 1 .553.229c.147.147.23.346.23.554s-.083.407-.23.554a.78.78 0 0 1-.553.229z" fill="#3f3d56"/><g fill="#f2f2f2"><use xlink:href="#C"/><path d="M75.717 43.512c2.795 0 5.06-2.267 5.06-5.064s-2.266-5.064-5.06-5.064-5.06 2.267-5.06 5.064 2.266 5.064 5.06 5.064zm0 20.183c2.795 0 5.06-2.267 5.06-5.064s-2.266-5.064-5.06-5.064-5.06 2.267-5.06 5.064 2.266 5.064 5.06 5.064zm0 20.182c2.795 0 5.06-2.267 5.06-5.064s-2.266-5.064-5.06-5.064-5.06 2.267-5.06 5.064 2.266 5.064 5.06 5.064z"/><use xlink:href="#D"/><path d="M96.844 43.512c2.795 0 5.06-2.267 5.06-5.064s-2.265-5.064-5.06-5.064-5.06 2.267-5.06 5.064 2.266 5.064 5.06 5.064zm0 20.183c2.795 0 5.06-2.267 5.06-5.064s-2.265-5.064-5.06-5.064-5.06 2.267-5.06 5.064 2.266 5.064 5.06 5.064zm0 20.182c2.795 0 5.06-2.267 5.06-5.064s-2.265-5.064-5.06-5.064-5.06 2.267-5.06 5.064 2.266 5.064 5.06 5.064z"/><use xlink:href="#E"/><path d="M117.971 43.512c2.795 0 5.06-2.267 5.06-5.064s-2.265-5.064-5.06-5.064-5.06 2.267-5.06 5.064 2.265 5.064 5.06 5.064zm0 20.183c2.795 0 5.06-2.267 5.06-5.064s-2.265-5.064-5.06-5.064-5.06 2.267-5.06 5.064 2.265 5.064 5.06 5.064zm0 20.182c2.795 0 5.06-2.267 5.06-5.064s-2.265-5.064-5.06-5.064-5.06 2.267-5.06 5.064 2.265 5.064 5.06 5.064z"/><use xlink:href="#F"/><path d="M139.098 43.512c2.795 0 5.061-2.267 5.061-5.064s-2.266-5.064-5.061-5.064-5.06 2.267-5.06 5.064 2.266 5.064 5.06 5.064zm0 20.183c2.795 0 5.061-2.267 5.061-5.064s-2.266-5.064-5.061-5.064-5.06 2.267-5.06 5.064 2.266 5.064 5.06 5.064zm0 20.182c2.795 0 5.061-2.267 5.061-5.064s-2.266-5.064-5.061-5.064-5.06 2.267-5.06 5.064 2.266 5.064 5.06 5.064z"/><use xlink:href="#G"/><path d="M160.226 43.512c2.794 0 5.06-2.267 5.06-5.064s-2.266-5.064-5.06-5.064-5.061 2.267-5.061 5.064 2.266 5.064 5.061 5.064zm0 20.183c2.794 0 5.06-2.267 5.06-5.064s-2.266-5.064-5.06-5.064-5.061 2.267-5.061 5.064 2.266 5.064 5.061 5.064zm0 20.182c2.794 0 5.06-2.267 5.06-5.064s-2.266-5.064-5.06-5.064-5.061 2.267-5.061 5.064 2.266 5.064 5.061 5.064zm21.127-60.548c2.795 0 5.06-2.267 5.06-5.064s-2.265-5.064-5.06-5.064-5.06 2.267-5.06 5.064 2.265 5.064 5.06 5.064zm0 20.183c2.795 0 5.06-2.267 5.06-5.064s-2.265-5.064-5.06-5.064-5.06 2.267-5.06 5.064 2.265 5.064 5.06 5.064zm0 20.183c2.795 0 5.06-2.267 5.06-5.064s-2.265-5.064-5.06-5.064-5.06 2.267-5.06 5.064 2.265 5.064 5.06 5.064zm0 20.182c2.795 0 5.06-2.267 5.06-5.064s-2.265-5.064-5.06-5.064-5.06 2.267-5.06 5.064 2.265 5.064 5.06 5.064zm289.521 219.798c2.795 0 5.06-2.268 5.06-5.064s-2.265-5.065-5.06-5.065-5.06 2.268-5.06 5.065 2.265 5.064 5.06 5.064zm0 20.183c2.795 0 5.06-2.268 5.06-5.065s-2.265-5.064-5.06-5.064-5.06 2.268-5.06 5.064 2.265 5.065 5.06 5.065zm0 20.182c2.795 0 5.06-2.267 5.06-5.064s-2.265-5.064-5.06-5.064-5.06 2.267-5.06 5.064 2.265 5.064 5.06 5.064z"/><use xlink:href="#H"/><use xlink:href="#I"/><path d="M492.001 344.04c2.795 0 5.061-2.267 5.061-5.064s-2.266-5.064-5.061-5.064-5.06 2.267-5.06 5.064 2.266 5.064 5.06 5.064zm21.127-40.365c2.795 0 5.061-2.268 5.061-5.064s-2.266-5.065-5.061-5.065-5.06 2.268-5.06 5.065 2.266 5.064 5.06 5.064zm0 20.183c2.795 0 5.061-2.268 5.061-5.065s-2.266-5.064-5.061-5.064-5.06 2.268-5.06 5.064 2.266 5.065 5.06 5.065zm0 20.182c2.795 0 5.061-2.267 5.061-5.064s-2.266-5.064-5.061-5.064-5.06 2.267-5.06 5.064 2.266 5.064 5.06 5.064zm21.128-40.365c2.794 0 5.06-2.268 5.06-5.064s-2.266-5.065-5.06-5.065-5.061 2.268-5.061 5.065 2.266 5.064 5.061 5.064zm0 20.183c2.794 0 5.06-2.268 5.06-5.065s-2.266-5.064-5.06-5.064-5.061 2.268-5.061 5.064 2.266 5.065 5.061 5.065zm0 20.182c2.794 0 5.06-2.267 5.06-5.064s-2.266-5.064-5.06-5.064-5.061 2.267-5.061 5.064 2.266 5.064 5.061 5.064z"/></g></g><defs><clipPath id="A"><path fill="#fff" d="M0 0h577v426H0z"/></clipPath><path id="B" d="M373.584 73.003h-94.023c-.541.011-1.067-.184-1.47-.546a2.14 2.14 0 0 1-.702-1.403c-.015-.279.027-.559.124-.822s.245-.503.437-.706.424-.365.681-.475a2.06 2.06 0 0 1 .814-.168h95.128c2.066 1.817.807 4.12-.989 4.12h0z"/><path id="C" d="M75.717 23.329c2.795 0 5.06-2.267 5.06-5.064s-2.266-5.064-5.06-5.064-5.06 2.267-5.06 5.064 2.266 5.064 5.06 5.064z"/><path id="D" d="M96.844 23.329c2.795 0 5.06-2.267 5.06-5.064s-2.265-5.064-5.06-5.064-5.06 2.267-5.06 5.064 2.266 5.064 5.06 5.064z"/><path id="E" d="M117.971 23.329c2.795 0 5.06-2.267 5.06-5.064s-2.265-5.064-5.06-5.064-5.06 2.267-5.06 5.064 2.265 5.064 5.06 5.064z"/><path id="F" d="M139.098 23.329c2.795 0 5.061-2.267 5.061-5.064s-2.266-5.064-5.061-5.064-5.06 2.267-5.06 5.064 2.266 5.064 5.06 5.064z"/><path id="G" d="M160.226 23.329c2.794 0 5.06-2.267 5.06-5.064s-2.266-5.064-5.06-5.064-5.061 2.267-5.061 5.064 2.266 5.064 5.061 5.064z"/><path id="H" d="M492.001 303.675c2.795 0 5.061-2.268 5.061-5.064s-2.266-5.065-5.061-5.065-5.06 2.268-5.06 5.065 2.266 5.064 5.06 5.064z"/><path id="I" d="M492.001 323.858c2.795 0 5.061-2.268 5.061-5.065s-2.266-5.064-5.061-5.064-5.06 2.268-5.06 5.064 2.266 5.065 5.06 5.065z"/></defs></svg>
