<svg width="509" height="454" viewBox="0 0 509 454" fill="none" xmlns="http://www.w3.org/2000/svg">
<g clip-path="url(#clip0)" filter="url(#filter0_d)">
<path d="M434.558 368.515C426.104 393.32 415.233 418.071 401.306 441.629C400.997 442.159 400.684 442.679 400.369 443.208L365.89 432.28C366.088 431.78 366.305 431.22 366.539 430.609C380.446 394.579 464.349 175.055 460.583 131.772C460.989 135.315 474.114 252.562 434.558 368.515Z" fill="#E6E6E6"/>
<path d="M407.958 443.737C407.489 444.217 407.008 444.693 406.524 445.158L380.658 436.961C381.008 436.537 381.415 436.037 381.884 435.473C389.544 426.101 412.319 398.04 434.558 368.515C458.457 336.787 481.742 303.372 485.005 289.642C484.35 292.764 463.94 387.808 407.958 443.737Z" fill="#E6E6E6"/>
<path d="M420.887 78.2188C420.877 78.2188 420.868 78.2215 420.858 78.2219V22.6751C420.858 16.6613 418.474 10.8938 414.229 6.64137C409.984 2.38897 404.227 0 398.225 0H224.638C218.635 0 212.878 2.38897 208.633 6.64137C204.389 10.8938 202.004 16.6613 202.004 22.6751V51.1513C201.525 51.1615 201.068 51.3593 200.733 51.7023C200.398 52.0454 200.209 52.5063 200.209 52.9865V67.0911C200.209 67.5713 200.398 68.0322 200.733 68.3752C201.068 68.7182 201.525 68.9159 202.004 68.9261V83.7019H201.912C201.671 83.7019 201.432 83.7495 201.209 83.8419C200.987 83.9343 200.784 84.0698 200.614 84.2406C200.443 84.4114 200.308 84.6142 200.216 84.8373C200.123 85.0605 200.076 85.2997 200.076 85.5412V112.816C200.076 113.057 200.123 113.297 200.216 113.52C200.308 113.743 200.443 113.946 200.614 114.117C200.784 114.287 200.987 114.423 201.209 114.515C201.432 114.608 201.671 114.655 201.912 114.655H202.004V125.488H201.975C201.734 125.488 201.495 125.535 201.273 125.628C201.05 125.72 200.848 125.856 200.677 126.027C200.507 126.197 200.371 126.4 200.279 126.623C200.187 126.846 200.139 127.086 200.139 127.327V154.869C200.139 155.11 200.187 155.349 200.279 155.573C200.371 155.796 200.507 155.998 200.677 156.169C200.848 156.34 201.05 156.476 201.273 156.568C201.495 156.66 201.734 156.708 201.975 156.708H202.004V422.93C202.004 428.944 204.389 434.711 208.633 438.963C212.878 443.216 218.635 445.605 224.638 445.605H398.225C404.227 445.605 409.984 443.216 414.229 438.963C418.474 434.711 420.858 428.944 420.858 422.93V132.232C420.868 132.232 420.877 132.235 420.887 132.235C421.316 132.235 421.741 132.15 422.138 131.986C422.535 131.821 422.895 131.58 423.199 131.276C423.502 130.972 423.743 130.611 423.907 130.213C424.072 129.816 424.156 129.39 424.156 128.96V81.4941C424.156 80.6254 423.812 79.7923 423.199 79.1781C422.586 78.5639 421.754 78.2188 420.887 78.2188Z" fill="#3F3D56"/>
<path d="M407.344 29.0221V416.576C407.342 421.194 405.51 425.622 402.25 428.886C398.991 432.151 394.57 433.985 389.961 433.985H232.901C228.292 433.985 223.871 432.151 220.612 428.886C217.352 425.622 215.52 421.194 215.518 416.576V29.0221C215.518 24.4035 217.349 19.9741 220.609 16.7082C223.869 13.4424 228.291 11.6076 232.901 11.6076H256.403V14.6636C256.405 18.4661 257.914 22.1125 260.598 24.8013C263.282 27.4901 266.921 29.0014 270.717 29.0031H350.623C354.414 28.9947 358.046 27.4802 360.724 24.7919C363.401 22.1037 364.905 18.4612 364.905 14.6636V11.6394H389.961C394.566 11.6394 398.983 13.4698 402.242 16.7287C405.501 19.9877 407.336 24.409 407.344 29.0221Z" fill="white"/>
<path d="M152.658 217.463C151.729 217.103 150.733 216.951 149.739 217.018C148.746 217.086 147.779 217.37 146.907 217.852C146.035 218.334 145.279 219.002 144.692 219.809C144.106 220.615 143.703 221.54 143.512 222.52L87.5428 253.008L97.3835 264.104L149.361 230.686C151.024 230.898 152.707 230.492 154.092 229.544C155.476 228.596 156.465 227.172 156.872 225.542C157.278 223.912 157.074 222.19 156.297 220.701C155.521 219.212 154.226 218.06 152.658 217.463H152.658Z" fill="#FFB8B8"/>
<path d="M138.384 436.825L145.358 432.306L131.277 403.206L120.984 409.875L138.384 436.825Z" fill="#FFB8B8"/>
<path d="M162.997 430.078L141.078 444.281L135.6 435.797L149.367 426.876C151.529 425.475 154.158 424.992 156.676 425.533C159.194 426.074 161.394 427.595 162.792 429.761L162.997 430.078L162.997 430.078Z" fill="#2F2E41"/>
<path d="M60.1317 437.876H68.4375L72.3903 405.781H60.1317V437.876Z" fill="#FFB8B8"/>
<path d="M84.4564 445.603H58.3519V435.499H74.7477C76.0227 435.499 77.2852 435.75 78.4631 436.239C79.641 436.728 80.7113 437.444 81.6128 438.348C82.5143 439.251 83.2295 440.323 83.7174 441.503C84.2053 442.683 84.4564 443.948 84.4564 445.225V445.603Z" fill="#2F2E41"/>
<path d="M250.695 62.8932H233.572C233.152 62.8932 232.748 62.7258 232.451 62.428C232.154 62.1301 231.987 61.7261 231.987 61.3048C231.987 60.8836 232.154 60.4796 232.451 60.1817C232.748 59.8838 233.152 59.7165 233.572 59.7165H250.695C251.115 59.7165 251.519 59.8838 251.816 60.1817C252.113 60.4796 252.28 60.8836 252.28 61.3048C252.28 61.7261 252.113 62.1301 251.816 62.428C251.519 62.7258 251.115 62.8932 250.695 62.8932Z" fill="#3F3D56"/>
<path d="M250.695 67.3405H233.572C233.152 67.3405 232.748 67.1732 232.451 66.8753C232.154 66.5774 231.987 66.1734 231.987 65.7522C231.987 65.3309 232.154 64.9269 232.451 64.629C232.748 64.3312 233.152 64.1638 233.572 64.1638H250.695C251.115 64.1638 251.519 64.3312 251.816 64.629C252.113 64.9269 252.28 65.3309 252.28 65.7522C252.28 66.1734 252.113 66.5774 251.816 66.8753C251.519 67.1732 251.115 67.3405 250.695 67.3405Z" fill="#3F3D56"/>
<path d="M250.695 71.7879H233.572C233.152 71.7879 232.748 71.6205 232.451 71.3226C232.154 71.0248 231.987 70.6208 231.987 70.1995C231.987 69.7783 232.154 69.3743 232.451 69.0764C232.748 68.7785 233.152 68.6112 233.572 68.6112H250.695C251.115 68.6112 251.519 68.7785 251.816 69.0764C252.113 69.3743 252.28 69.7783 252.28 70.1995C252.28 70.6208 252.113 71.0248 251.816 71.3226C251.519 71.6205 251.115 71.7879 250.695 71.7879Z" fill="#3F3D56"/>
<path d="M383.423 67.3723H382.846L382.624 67.188C383.353 66.3175 383.752 65.2175 383.753 64.0812C383.748 63.1463 383.466 62.234 382.943 61.4594C382.421 60.6849 381.681 60.0831 380.817 59.7299C379.952 59.3768 379.003 59.2883 378.089 59.4757C377.175 59.663 376.337 60.1177 375.68 60.7823C375.024 61.4469 374.579 62.2916 374.402 63.2095C374.225 64.1273 374.323 65.0772 374.685 65.939C375.047 66.8008 375.656 67.5358 376.434 68.051C377.213 68.5662 378.127 68.8385 379.06 68.8335C380.191 68.8255 381.284 68.426 382.155 67.7026L382.37 67.8869V68.4714L386.01 72.1246L387.101 71.0318L383.423 67.3723ZM379.06 67.3723C378.41 67.3748 377.774 67.1842 377.233 66.8247C376.691 66.4652 376.268 65.9528 376.017 65.3524C375.766 64.752 375.698 64.0906 375.823 63.4517C375.947 62.8128 376.258 62.2252 376.715 61.7631C377.173 61.3011 377.757 60.9854 378.394 60.856C379.03 60.7265 379.691 60.7891 380.292 61.0359C380.894 61.2826 381.408 61.7025 381.771 62.2423C382.134 62.7821 382.33 63.4176 382.332 64.0685L382.332 64.0812C382.335 64.5109 382.253 64.9369 382.091 65.3348C381.929 65.7327 381.69 66.0948 381.389 66.4004C381.087 66.706 380.729 66.9491 380.333 67.1159C379.938 67.2826 379.514 67.3697 379.085 67.3722C379.077 67.3723 379.068 67.3723 379.06 67.3723H379.06Z" fill="#3F3D56"/>
<path d="M285.578 121.344H254.817C252.967 121.344 251.193 120.608 249.884 119.297C248.576 117.986 247.841 116.209 247.841 114.355C247.841 112.502 248.576 110.724 249.884 109.414C251.193 108.103 252.967 107.367 254.817 107.367H285.578C287.428 107.367 289.203 108.103 290.511 109.414C291.819 110.724 292.554 112.502 292.554 114.355C292.554 116.209 291.819 117.986 290.511 119.297C289.203 120.608 287.428 121.344 285.578 121.344Z" fill="#0C56D0"/>
<path d="M379.75 136.592H251.646C250.637 136.592 249.669 136.19 248.956 135.475C248.242 134.761 247.841 133.791 247.841 132.78C247.841 131.769 248.242 130.799 248.956 130.084C249.669 129.37 250.637 128.968 251.646 128.968H379.75C380.759 128.968 381.727 129.37 382.441 130.084C383.154 130.799 383.555 131.769 383.555 132.78C383.555 133.791 383.154 134.761 382.441 135.475C381.727 136.19 380.759 136.592 379.75 136.592Z" fill="#E6E6E6"/>
<path d="M298.702 151.84H251.646C250.637 151.84 249.669 151.438 248.956 150.724C248.242 150.009 247.841 149.039 247.841 148.028C247.841 147.017 248.242 146.047 248.956 145.333C249.669 144.618 250.637 144.216 251.646 144.216H298.702C299.711 144.216 300.679 144.618 301.393 145.333C302.107 146.047 302.507 147.017 302.507 148.028C302.507 149.039 302.107 150.009 301.393 150.724C300.679 151.438 299.711 151.84 298.702 151.84Z" fill="#E6E6E6"/>
<path d="M285.578 290.343H254.817C252.967 290.343 251.193 289.607 249.884 288.296C248.576 286.985 247.841 285.208 247.841 283.354C247.841 281.501 248.576 279.723 249.884 278.413C251.193 277.102 252.967 276.366 254.817 276.366H285.578C287.428 276.366 289.203 277.102 290.511 278.413C291.819 279.723 292.554 281.501 292.554 283.354C292.554 285.208 291.819 286.985 290.511 288.296C289.203 289.607 287.428 290.343 285.578 290.343Z" fill="#0C56D0"/>
<path d="M379.75 305.591H251.646C250.637 305.591 249.669 305.189 248.956 304.475C248.242 303.76 247.841 302.79 247.841 301.779C247.841 300.768 248.242 299.798 248.956 299.084C249.669 298.369 250.637 297.967 251.646 297.967H379.75C380.759 297.967 381.727 298.369 382.441 299.084C383.154 299.798 383.555 300.768 383.555 301.779C383.555 302.79 383.154 303.76 382.441 304.475C381.727 305.189 380.759 305.591 379.75 305.591Z" fill="#E6E6E6"/>
<path d="M298.702 320.839H251.646C250.637 320.839 249.669 320.437 248.956 319.723C248.242 319.008 247.841 318.038 247.841 317.027C247.841 316.016 248.242 315.046 248.956 314.332C249.669 313.617 250.637 313.215 251.646 313.215H298.702C299.711 313.215 300.679 313.617 301.393 314.332C302.107 315.046 302.507 316.016 302.507 317.027C302.507 318.038 302.107 319.008 301.393 319.723C300.679 320.437 299.711 320.839 298.702 320.839Z" fill="#E6E6E6"/>
<path d="M285.578 368.489H254.817C252.967 368.489 251.193 367.753 249.884 366.442C248.576 365.132 247.841 363.354 247.841 361.5C247.841 359.647 248.576 357.869 249.884 356.559C251.193 355.248 252.967 354.512 254.817 354.512H285.578C287.428 354.512 289.203 355.248 290.511 356.559C291.819 357.869 292.554 359.647 292.554 361.5C292.554 363.354 291.819 365.132 290.511 366.442C289.203 367.753 287.428 368.489 285.578 368.489Z" fill="#0C56D0"/>
<path d="M379.75 383.737H251.646C250.637 383.737 249.669 383.336 248.956 382.621C248.242 381.906 247.841 380.936 247.841 379.925C247.841 378.914 248.242 377.945 248.956 377.23C249.669 376.515 250.637 376.113 251.646 376.113H379.75C380.759 376.113 381.727 376.515 382.441 377.23C383.154 377.945 383.555 378.914 383.555 379.925C383.555 380.936 383.154 381.906 382.441 382.621C381.727 383.336 380.759 383.737 379.75 383.737Z" fill="#E6E6E6"/>
<path d="M298.702 398.985H251.646C250.637 398.985 249.669 398.584 248.956 397.869C248.242 397.154 247.841 396.184 247.841 395.173C247.841 394.162 248.242 393.193 248.956 392.478C249.669 391.763 250.637 391.361 251.646 391.361H298.702C299.711 391.361 300.679 391.763 301.393 392.478C302.107 393.193 302.507 394.162 302.507 395.173C302.507 396.184 302.107 397.154 301.393 397.869C300.679 398.584 299.711 398.985 298.702 398.985Z" fill="#E6E6E6"/>
<path d="M397.824 250.635H153.032C151.602 250.633 150.232 250.063 149.222 249.051C148.211 248.039 147.643 246.666 147.641 245.234V178.524C147.643 177.092 148.211 175.72 149.222 174.707C150.232 173.695 151.602 173.125 153.032 173.124H397.824C399.253 173.125 400.623 173.695 401.634 174.707C402.644 175.72 403.213 177.092 403.215 178.524V245.234C403.213 246.666 402.644 248.039 401.634 249.051C400.623 250.063 399.253 250.633 397.824 250.635Z" fill="#0C56D0"/>
<path d="M65.0279 330.001C67.368 346.449 54.9762 419.322 56.3524 419.316L74.1474 419.221C74.7816 418.001 82.9498 378.68 85.5118 372.371C89.0886 363.616 92.6971 354.753 94.105 345.401C95.4304 336.621 94.7772 327.675 93.9147 318.838C93.9548 318.575 93.9319 318.306 93.8479 318.054C93.764 317.802 93.6213 317.573 93.4317 317.387C93.2422 317.201 93.0112 317.062 92.7577 316.983C92.5043 316.904 92.2357 316.886 91.9741 316.932L68.0973 315.699C63.1761 315.445 62.0092 314.365 62.7576 319.206C63.2776 322.821 64.5079 326.341 65.0279 330.001Z" fill="#2F2E41"/>
<path d="M69.7208 290.006C64.8693 296.995 59.7832 305.038 61.394 313.406C62.618 319.759 67.4504 324.683 72.0101 329.289C90.2364 347.625 126.175 428.528 126.175 428.528C143.519 417.41 125.762 428.846 143.361 417.092C141.801 416.972 106.357 289.326 103.421 289.155C91.5428 288.367 81.2945 287.204 69.7208 290.006Z" fill="#2F2E41"/>
<path d="M88.91 223.487C86.4458 221.286 69.1285 214.496 69.1285 214.496C68.8102 214.454 68.487 214.464 68.1718 214.525C67.1862 214.774 66.7366 216.001 66.9471 216.993C67.1576 217.985 65.4306 234.29 64.9857 241.704C64.2059 254.644 71.8123 283.956 71.7454 284.852C71.4847 288.049 70.0877 291.045 67.8082 293.297C68.4006 294.034 106.027 295.511 108.586 296.383C109.103 295.727 105.673 249.233 105.515 246.607C105.252 242.62 92.1631 226.507 88.91 223.487Z" fill="#E6E6E6"/>
<path d="M62.0733 324.371C62.965 323.926 63.7485 323.291 64.3687 322.51C64.9889 321.73 65.4307 320.822 65.663 319.852C65.8953 318.882 65.9124 317.872 65.7131 316.894C65.5138 315.917 65.103 314.995 64.5095 314.193L80.3849 226.174L65.5704 225.979L54.5459 313.018C53.2682 314.106 52.4333 315.626 52.1993 317.289C51.9654 318.953 52.3486 320.645 53.2765 322.044C54.2043 323.443 55.6123 324.453 57.2336 324.882C58.8549 325.311 60.5769 325.129 62.0733 324.371H62.0733Z" fill="#FFB8B8"/>
<path d="M61.9458 232.705C61.328 232.75 60.7126 232.59 60.1955 232.248C59.314 231.492 66.5055 219.923 67.9261 219.751C72.5492 219.217 77.3056 219.039 81.7892 220.291C86.2728 221.543 90.4901 224.389 92.4941 228.601C93.3312 230.355 87.2621 239.18 84.5035 237.883C81.1994 236.333 66.2962 232.813 61.9458 232.705Z" fill="#E6E6E6"/>
<path d="M78.2635 213.548C87.4535 213.548 94.9035 206.084 94.9035 196.878C94.9035 187.671 87.4535 180.207 78.2635 180.207C69.0734 180.207 61.6234 187.671 61.6234 196.878C61.6234 206.084 69.0734 213.548 78.2635 213.548Z" fill="#FFB8B8"/>
<path d="M61.9194 224.441C64.2318 224.683 66.5679 224.341 68.714 223.445C70.8601 222.549 72.7478 221.128 74.2042 219.313C75.6607 217.497 76.6394 215.345 77.0509 213.052C77.4624 210.76 77.2936 208.4 76.5598 206.19C75.8975 204.196 74.7906 202.368 74.1842 200.355C73.5778 198.343 73.5612 195.964 74.9063 194.351C77.5379 191.194 82.6102 193.18 86.6673 192.552C90.9902 191.883 94.3067 187.728 94.6527 183.36C94.9986 178.992 92.7258 174.669 89.3425 171.891C85.9591 169.114 81.5955 167.746 77.2423 167.318C71.6517 166.767 66.0138 167.668 60.8714 169.934C55.7291 172.199 51.2556 175.753 47.8817 180.253C44.5078 184.752 42.3471 190.046 41.6076 195.625C40.8681 201.204 41.5749 206.88 43.6597 212.106C45.4784 216.664 48.4491 220.911 52.6687 223.407C56.8883 225.904 62.4612 226.384 66.6667 223.863" fill="#2F2E41"/>
<path d="M240.09 203.62H197.565C194.865 203.62 192.668 200.485 192.668 196.631C192.668 192.778 194.865 189.642 197.566 189.642H240.09C242.79 189.642 244.987 192.778 244.987 196.631C244.987 200.485 242.79 203.62 240.09 203.62Z" fill="white"/>
<path d="M354.383 218.868H196.473C195.464 218.868 194.496 218.466 193.782 217.751C193.069 217.036 192.668 216.067 192.668 215.056C192.668 214.045 193.069 213.075 193.782 212.36C194.496 211.645 195.464 211.244 196.473 211.244H354.383C355.392 211.244 356.36 211.645 357.074 212.36C357.787 213.075 358.188 214.045 358.188 215.056C358.188 216.067 357.787 217.036 357.074 217.751C356.36 218.466 355.392 218.868 354.383 218.868Z" fill="#E6E6E6"/>
<path d="M273.335 234.116H196.473C195.464 234.116 194.496 233.714 193.782 232.999C193.069 232.284 192.668 231.315 192.668 230.304C192.668 229.293 193.069 228.323 193.782 227.608C194.496 226.893 195.464 226.492 196.473 226.492H273.335C274.344 226.492 275.312 226.893 276.026 227.608C276.739 228.323 277.14 229.293 277.14 230.304C277.14 231.315 276.739 232.284 276.026 232.999C275.312 233.714 274.344 234.116 273.335 234.116Z" fill="#E6E6E6"/>
<path d="M505 444.729H4V446H505V444.729Z" fill="#3F3D56"/>
</g>
<defs>
<filter id="filter0_d" x="0" y="0" width="509" height="454" filterUnits="userSpaceOnUse" color-interpolation-filters="sRGB">
<feFlood flood-opacity="0" result="BackgroundImageFix"/>
<feColorMatrix in="SourceAlpha" type="matrix" values="0 0 0 0 0 0 0 0 0 0 0 0 0 0 0 0 0 0 127 0"/>
<feOffset dy="4"/>
<feGaussianBlur stdDeviation="2"/>
<feColorMatrix type="matrix" values="0 0 0 0 0 0 0 0 0 0 0 0 0 0 0 0 0 0 0.25 0"/>
<feBlend mode="normal" in2="BackgroundImageFix" result="effect1_dropShadow"/>
<feBlend mode="normal" in="SourceGraphic" in2="effect1_dropShadow" result="shape"/>
</filter>
<clipPath id="clip0">
<rect width="501" height="446" fill="white" transform="translate(4)"/>
</clipPath>
</defs>
</svg>
