<svg width="21" height="22" viewBox="0 0 21 22" fill="none" xmlns="http://www.w3.org/2000/svg">
<g clip-path="url(#clip0)">
<path d="M20.0346 9.81766H11.2389V1.02197C11.2389 0.572164 10.8743 0.20755 10.4245 0.20755C9.97473 0.20755 9.61011 0.572164 9.61011 1.02197V9.81766H0.814416C0.364614 9.81766 0 10.1823 0 10.6321C0 11.0819 0.364614 11.4465 0.814416 11.4465H9.61011V20.2422C9.61011 20.692 9.97473 21.0566 10.4245 21.0566C10.8743 21.0566 11.2389 20.692 11.2389 20.2422V11.4465H20.0346C20.4844 11.4465 20.8491 11.0819 20.8491 10.6321C20.8491 10.1823 20.4844 9.81766 20.0346 9.81766Z" fill="#566598"/>
</g>
<defs>
<clipPath id="clip0">
<rect width="20.8491" height="20.8491" fill="white" transform="translate(0 0.20755)"/>
</clipPath>
</defs>
</svg>
