<svg width="21" height="22" viewBox="0 0 21 22" fill="none" xmlns="http://www.w3.org/2000/svg">
<g clip-path="url(#clip0)">
<path d="M17.5566 21.1698H15.444C15.444 17.6059 12.4547 14.7074 8.77777 14.7074C5.10083 14.7074 2.11258 17.607 2.11258 21.1698H0C0 16.4398 3.93891 12.5949 8.77883 12.5949C13.6177 12.5949 17.5566 16.4398 17.5566 21.1698Z" fill="#566598"/>
<path d="M8.77884 11.9083C5.58568 11.9083 2.98615 9.30768 2.98615 6.11451C2.98509 2.92029 5.58462 0.320763 8.77884 0.320763C11.9741 0.320763 14.5736 2.91924 14.5736 6.11451C14.5736 9.30979 11.9741 11.9083 8.77884 11.9083ZM8.77884 2.43334C6.74865 2.43334 5.09767 4.08432 5.09767 6.11451C5.09767 8.1447 6.74865 9.79569 8.77884 9.79569C10.8101 9.79569 12.4611 8.1447 12.4611 6.11451C12.4611 4.08432 10.808 2.43334 8.77884 2.43334Z" fill="#566598"/>
</g>
<defs>
<clipPath id="clip0">
<rect width="20.8491" height="20.8491" fill="white" transform="translate(0 0.320763)"/>
</clipPath>
</defs>
</svg>
